<svg width="104" height="103" viewBox="0 0 104 103" fill="none" xmlns="http://www.w3.org/2000/svg">
<circle cx="54" cy="53" r="49.5" fill="#F8F7F3" stroke="#45AA49"/>
<g clip-path="url(#clip0)">
<path d="M73.0449 44.2707H70.3264C69.436 42.1528 68.1098 40.1999 66.4299 38.5715C63.7895 36.0121 60.371 34.3443 56.8043 33.8755C50.894 33.0987 45.1012 35.3623 41.3091 39.9307C40.2208 41.2417 39.3353 42.7089 38.6815 44.2707H35.9551C33.7742 44.2707 32 46.045 32 48.2258V53.4992C32 55.6801 33.7742 57.4543 35.9551 57.4543H41.356L40.7912 55.7264C39.1453 50.6909 40.0736 45.5474 43.338 41.6147C46.5479 37.7476 51.4538 35.8317 56.4607 36.4898C62.7321 37.3141 67.8102 42.2393 68.8093 48.4671C69.4912 52.7167 68.3016 57.0108 65.5457 60.2487C62.7833 63.494 58.7648 65.3586 54.5203 65.3645C52.3283 65.3675 50.545 67.1418 50.545 69.3195C50.545 71.5004 52.3193 73.2746 54.5001 73.2746C56.6809 73.2746 58.4552 71.5004 58.4552 69.3195V67.5384C61.9672 66.7044 65.16 64.7699 67.5536 61.9576C68.7162 60.5918 69.642 59.0826 70.3208 57.4542H73.0449C75.2258 57.4542 77 55.68 77 53.4991V48.2257C77 46.045 75.2258 44.2707 73.0449 44.2707ZM37.8065 54.8176H35.9551C35.2281 54.8176 34.6367 54.2262 34.6367 53.4992V48.2258C34.6367 47.4988 35.2281 46.9074 35.9551 46.9074H37.8222C37.7753 47.105 37.7319 47.3036 37.6921 47.5028C37.2109 49.9138 37.2501 52.3672 37.8065 54.8176ZM55.8184 69.3195C55.8184 70.0465 55.2269 70.6379 54.5 70.6379C53.7731 70.6379 53.1816 70.0465 53.1816 69.3195C53.1816 68.5936 53.7838 68.0022 54.5238 68.0012C54.9575 68.0006 55.3895 67.9835 55.8184 67.9506V69.3195ZM74.3633 53.4992C74.3633 54.2262 73.7719 54.8176 73.0449 54.8176H71.1769C71.7004 52.6159 71.7807 50.3433 71.4127 48.0493C71.3513 47.6663 71.275 47.2855 71.1859 46.9074H73.0449C73.7719 46.9074 74.3633 47.4988 74.3633 48.2258V53.4992Z" fill="#45AA49"/>
<path d="M47.9082 49.5439H50.5449V52.1807H47.9082V49.5439Z" fill="#45AA49"/>
<path d="M53.1816 49.5439H55.8184V52.1807H53.1816V49.5439Z" fill="#45AA49"/>
<path d="M58.4551 49.5439H61.0918V52.1807H58.4551V49.5439Z" fill="#45AA49"/>
<path d="M42.6348 60.0908V62.7275H54.5C61.0425 62.7275 66.3652 57.4048 66.3652 50.8623C66.3652 44.3198 61.0425 38.9971 54.5 38.9971C47.9575 38.9971 42.6348 44.3198 42.6348 50.8623C42.6348 53.5288 43.5303 56.107 45.1686 58.1914C44.8508 59.3026 43.836 60.0908 42.6348 60.0908ZM54.5 41.6338C59.5886 41.6338 63.7285 45.7737 63.7285 50.8623C63.7285 55.9509 59.5886 60.0908 54.5 60.0908H47.203C47.5808 59.4371 47.816 58.7052 47.8861 57.94L47.9378 57.3755L47.5637 56.9497C46.0856 55.2668 45.2715 53.1049 45.2715 50.8623C45.2715 45.7737 49.4114 41.6338 54.5 41.6338Z" fill="#45AA49"/>
</g>
<circle cx="17" cy="17" r="15.5" fill="#45AA49"/>
<circle cx="17" cy="17" r="15.5" fill="url(#paint0_radial)"/>
<circle cx="17" cy="17" r="15.5" stroke="white" stroke-width="3"/>
<path d="M13.9051 22.196C12.6825 22.196 11.7211 21.734 11.0211 20.81C10.3305 19.8767 9.98512 18.64 9.98512 17.1C9.98512 15.56 10.3305 14.328 11.0211 13.404C11.7211 12.4707 12.6825 12.004 13.9051 12.004C15.1371 12.004 16.0985 12.4707 16.7891 13.404C17.4798 14.328 17.8251 15.56 17.8251 17.1C17.8251 18.64 17.4798 19.8767 16.7891 20.81C16.0985 21.734 15.1371 22.196 13.9051 22.196ZM12.4211 19.494C12.7571 20.0353 13.2518 20.306 13.9051 20.306C14.5585 20.306 15.0531 20.0307 15.3891 19.48C15.7345 18.9293 15.9071 18.136 15.9071 17.1C15.9071 16.0547 15.7345 15.2567 15.3891 14.706C15.0531 14.1553 14.5585 13.88 13.9051 13.88C13.2518 13.88 12.7571 14.1553 12.4211 14.706C12.0851 15.2567 11.9171 16.0547 11.9171 17.1C11.9171 18.1453 12.0851 18.9433 12.4211 19.494ZM18.4454 22V20.558L21.7914 17.114C22.538 16.33 22.9114 15.6767 22.9114 15.154C22.9114 14.7713 22.79 14.4633 22.5474 14.23C22.314 13.9967 22.0107 13.88 21.6374 13.88C20.9 13.88 20.354 14.2627 19.9994 15.028L18.3754 14.076C18.6834 13.404 19.1267 12.8907 19.7054 12.536C20.284 12.1813 20.9187 12.004 21.6094 12.004C22.496 12.004 23.2567 12.284 23.8914 12.844C24.526 13.3947 24.8434 14.1413 24.8434 15.084C24.8434 16.1013 24.3067 17.1467 23.2334 18.22L21.3154 20.138H24.9974V22H18.4454Z" fill="white"/>
<defs>
<radialGradient id="paint0_radial" cx="0" cy="0" r="1" gradientUnits="userSpaceOnUse" gradientTransform="translate(17 3) rotate(90) scale(28 17.7758)">
<stop stop-color="#55D35A"/>
<stop offset="1" stop-color="#259529"/>
</radialGradient>
<clipPath id="clip0">
<rect width="45" height="45" fill="white" transform="translate(32 31)"/>
</clipPath>
</defs>
</svg>
