<svg width="104" height="103" viewBox="0 0 104 103" fill="none" xmlns="http://www.w3.org/2000/svg">
<circle cx="54" cy="53" r="49.5" fill="#F8F7F3" stroke="#45AA49"/>
<path d="M74.5938 58.125C73.8175 58.125 73.1875 58.755 73.1875 59.5312V69.375H33.8125V52.5H49.2812C50.0575 52.5 50.6875 51.87 50.6875 51.0938C50.6875 50.3175 50.0575 49.6875 49.2812 49.6875H33.8125V44.0625H49.2812C50.0575 44.0625 50.6875 43.4325 50.6875 42.6562C50.6875 41.88 50.0575 41.25 49.2812 41.25H33.8125C32.26 41.25 31 42.51 31 44.0625V69.375C31 70.9275 32.26 72.1875 33.8125 72.1875H73.1875C74.74 72.1875 76 70.9275 76 69.375V59.5312C76 58.755 75.37 58.125 74.5938 58.125Z" fill="#45AA49"/>
<path d="M43.6562 58.125H38.0312C37.255 58.125 36.625 58.755 36.625 59.5312C36.625 60.3075 37.255 60.9375 38.0312 60.9375H43.6562C44.4325 60.9375 45.0625 60.3075 45.0625 59.5312C45.0625 58.755 44.4325 58.125 43.6562 58.125Z" fill="#45AA49"/>
<path d="M75.1478 37.143L65.3041 32.9243C64.9469 32.7752 64.5503 32.7752 64.1931 32.9243L54.3494 37.143C53.8347 37.3652 53.5 37.8743 53.5 38.4368V44.0618C53.5 51.799 56.3603 56.3215 64.0497 60.7512C64.2663 60.8749 64.5081 60.9368 64.75 60.9368C64.9919 60.9368 65.2337 60.8749 65.4503 60.7512C73.1397 56.3327 76 51.8102 76 44.0618V38.4368C76 37.8743 75.6653 37.3652 75.1478 37.143ZM73.1875 44.0618C73.1875 50.5559 71.0387 54.1305 64.75 57.8993C58.4612 54.1221 56.3125 50.5474 56.3125 44.0618V39.3649L64.75 35.748L73.1875 39.3649V44.0618Z" fill="#45AA49"/>
<path d="M69.8495 41.5602C69.2448 41.082 68.3616 41.1748 67.8723 41.7795L63.451 47.3089L61.7016 44.6933C61.2657 44.0464 60.391 43.8748 59.7526 44.3023C59.1085 44.7327 58.9313 45.6073 59.3616 46.2514L62.1741 50.4702C62.4244 50.8442 62.8351 51.0748 63.2851 51.0973C63.3048 51.0973 63.3273 51.0973 63.3441 51.0973C63.7688 51.0973 64.1738 50.9061 64.4438 50.5686L70.0688 43.5373C70.5526 42.9298 70.457 42.0467 69.8495 41.5602Z" fill="#45AA49"/>
<circle cx="17" cy="17" r="15.5" fill="#45AA49"/>
<circle cx="17" cy="17" r="15.5" fill="url(#paint0_radial)"/>
<circle cx="17" cy="17" r="15.5" stroke="white" stroke-width="3"/>
<path d="M13.7205 22.196C12.4979 22.196 11.5365 21.734 10.8365 20.81C10.1459 19.8767 9.80055 18.64 9.80055 17.1C9.80055 15.56 10.1459 14.328 10.8365 13.404C11.5365 12.4707 12.4979 12.004 13.7205 12.004C14.9525 12.004 15.9139 12.4707 16.6045 13.404C17.2952 14.328 17.6405 15.56 17.6405 17.1C17.6405 18.64 17.2952 19.8767 16.6045 20.81C15.9139 21.734 14.9525 22.196 13.7205 22.196ZM12.2365 19.494C12.5725 20.0353 13.0672 20.306 13.7205 20.306C14.3739 20.306 14.8685 20.0307 15.2045 19.48C15.5499 18.9293 15.7225 18.136 15.7225 17.1C15.7225 16.0547 15.5499 15.2567 15.2045 14.706C14.8685 14.1553 14.3739 13.88 13.7205 13.88C13.0672 13.88 12.5725 14.1553 12.2365 14.706C11.9005 15.2567 11.7325 16.0547 11.7325 17.1C11.7325 18.1453 11.9005 18.9433 12.2365 19.494ZM21.9395 15.77C22.8822 15.77 23.6755 16.0547 24.3195 16.624C24.9635 17.184 25.2855 17.968 25.2855 18.976C25.2855 19.984 24.9449 20.7727 24.2635 21.342C23.5915 21.9113 22.7655 22.196 21.7855 22.196C20.9922 22.196 20.2922 22.0187 19.6855 21.664C19.0789 21.3093 18.6402 20.7867 18.3695 20.096L20.0215 19.13C20.2642 19.914 20.8522 20.306 21.7855 20.306C22.2802 20.306 22.6629 20.1893 22.9335 19.956C23.2135 19.7133 23.3535 19.3867 23.3535 18.976C23.3535 18.5747 23.2182 18.2527 22.9475 18.01C22.6769 17.7673 22.3082 17.646 21.8415 17.646H18.8735L19.2655 12.2H24.8235V14.006H21.0575L20.9315 15.77H21.9395Z" fill="white"/>
<defs>
<radialGradient id="paint0_radial" cx="0" cy="0" r="1" gradientUnits="userSpaceOnUse" gradientTransform="translate(17 3) rotate(90) scale(28 17.7758)">
<stop stop-color="#55D35A"/>
<stop offset="1" stop-color="#259529"/>
</radialGradient>
</defs>
</svg>
