<svg width="104" height="103" viewBox="0 0 104 103" fill="none" xmlns="http://www.w3.org/2000/svg">
<circle cx="54" cy="53" r="49.5" fill="#F8F7F3" stroke="#45AA49"/>
<g clip-path="url(#clip0)">
<path d="M72.6219 46.5306C72.7678 46.3039 72.8525 46.0023 72.8245 45.6988C72.0647 37.4499 64.1413 31 54.4997 31C44.9074 31 36.9395 37.4065 36.1756 45.6988C36.1489 45.989 36.2222 46.2756 36.3617 46.5049L43.2791 57.8764L40.6244 63.7088H39.8216C39.0935 63.7088 38.5032 64.299 38.5032 65.0271C38.5032 65.7552 39.0935 66.3455 39.8216 66.3455H40.6244L43.8238 73.3746C44.5498 74.9695 46.1511 76.0001 47.9033 76.0001H61.0969C62.8491 76.0001 64.4504 74.9695 65.1763 73.3746L68.3758 66.3455H69.2665C69.9946 66.3455 70.5849 65.7552 70.5849 65.0271C70.5849 64.299 69.9946 63.7088 69.2665 63.7088H68.3758L65.7206 57.8752L72.6219 46.5306ZM43.5214 63.7087L46.2237 57.7719C46.5226 57.1151 47.1819 56.6908 47.9033 56.6908H47.9083V59.059C47.9083 59.7871 48.4986 60.3774 49.2267 60.3774C49.9547 60.3774 50.545 59.7871 50.545 59.059V56.6908H53.1817V59.059C53.1817 59.7871 53.772 60.3774 54.5001 60.3774C55.2282 60.3774 55.8185 59.7871 55.8185 59.059V56.6908H58.4552V59.059C58.4552 59.7871 59.0454 60.3774 59.7735 60.3774C60.5016 60.3774 61.0919 59.7871 61.0919 59.059V56.6908H61.0969C61.8183 56.6908 62.4775 57.1151 62.7765 57.7719C63.1051 58.4939 65.1321 62.9468 65.4788 63.7087C64.5154 63.7087 44.4847 63.7087 43.5214 63.7087ZM54.4992 34.035C57.0331 36.3249 59.086 39.5227 59.1855 42.9891C56.383 41.0012 52.6164 41.0011 49.8138 42.9896C49.9126 39.5356 51.9528 36.3366 54.4992 34.035ZM58.7351 46.1439L56.3239 54.0541H52.6754L50.2645 46.1446C52.4505 43.4661 56.5486 43.4659 58.7351 46.1439ZM69.9118 45.9124L64.1987 55.3036C63.3779 54.5178 62.2716 54.0541 61.097 54.0541H59.0804L61.3901 46.4772C63.3974 43.5997 67.5512 43.331 69.9118 45.9124ZM69.1984 42.2088C66.8581 41.158 64.0941 41.2618 61.8016 42.5958C61.6186 39.3725 60.1817 36.4473 58.12 33.9979C63.1685 35.0207 67.3363 38.13 69.1984 42.2088ZM50.8787 33.998C48.8168 36.4479 47.3806 39.3729 47.1976 42.5954C44.9093 41.2643 42.1462 41.1561 39.8017 42.2087C41.6637 38.13 45.8308 35.0211 50.8787 33.998ZM47.6087 46.475L49.9189 54.0541H47.9033C46.7283 54.0541 45.6216 54.518 44.8007 55.3044L39.0879 45.913C41.4429 43.3367 45.5962 43.5934 47.6087 46.475ZM62.7765 72.2822C62.4776 72.9389 61.8183 73.3633 61.0969 73.3633H61.0919V70.995C61.0919 70.2669 60.5016 69.6766 59.7735 69.6766C59.0454 69.6766 58.4552 70.2669 58.4552 70.995V73.3633H55.8185V70.995C55.8185 70.2669 55.2282 69.6766 54.5001 69.6766C53.772 69.6766 53.1817 70.2669 53.1817 70.995V73.3633H50.545V70.995C50.545 70.2669 49.9547 69.6766 49.2267 69.6766C48.4986 69.6766 47.9083 70.2669 47.9083 70.995V73.3633H47.9033C47.1819 73.3633 46.5226 72.9389 46.2237 72.2822L43.5214 66.3455H65.4788L62.7765 72.2822Z" fill="#45AA49"/>
</g>
<circle cx="17" cy="17" r="15.5" fill="#45AA49"/>
<circle cx="17" cy="17" r="15.5" fill="url(#paint0_radial)"/>
<circle cx="17" cy="17" r="15.5" stroke="white" stroke-width="3"/>
<path d="M13.8846 22.196C12.6619 22.196 11.7006 21.734 11.0006 20.81C10.3099 19.8767 9.96461 18.64 9.96461 17.1C9.96461 15.56 10.3099 14.328 11.0006 13.404C11.7006 12.4707 12.6619 12.004 13.8846 12.004C15.1166 12.004 16.0779 12.4707 16.7686 13.404C17.4593 14.328 17.8046 15.56 17.8046 17.1C17.8046 18.64 17.4593 19.8767 16.7686 20.81C16.0779 21.734 15.1166 22.196 13.8846 22.196ZM12.4006 19.494C12.7366 20.0353 13.2313 20.306 13.8846 20.306C14.5379 20.306 15.0326 20.0307 15.3686 19.48C15.7139 18.9293 15.8866 18.136 15.8866 17.1C15.8866 16.0547 15.7139 15.2567 15.3686 14.706C15.0326 14.1553 14.5379 13.88 13.8846 13.88C13.2313 13.88 12.7366 14.1553 12.4006 14.706C12.0646 15.2567 11.8966 16.0547 11.8966 17.1C11.8966 18.1453 12.0646 18.9433 12.4006 19.494ZM22.8385 16.176C23.5012 16.372 24.0378 16.7173 24.4485 17.212C24.8685 17.6973 25.0785 18.2853 25.0785 18.976C25.0785 19.984 24.7378 20.7727 24.0565 21.342C23.3845 21.9113 22.5585 22.196 21.5785 22.196C20.8132 22.196 20.1272 22.0233 19.5205 21.678C18.9232 21.3233 18.4892 20.8053 18.2185 20.124L19.8705 19.172C20.1132 19.928 20.6825 20.306 21.5785 20.306C22.0732 20.306 22.4558 20.1893 22.7265 19.956C23.0065 19.7133 23.1465 19.3867 23.1465 18.976C23.1465 18.5747 23.0065 18.2527 22.7265 18.01C22.4558 17.7673 22.0732 17.646 21.5785 17.646H21.1585L20.4165 16.526L22.3485 14.006H18.5125V12.2H24.6725V13.796L22.8385 16.176Z" fill="white"/>
<defs>
<radialGradient id="paint0_radial" cx="0" cy="0" r="1" gradientUnits="userSpaceOnUse" gradientTransform="translate(17 3) rotate(90) scale(28 17.7758)">
<stop stop-color="#55D35A"/>
<stop offset="1" stop-color="#259529"/>
</radialGradient>
<clipPath id="clip0">
<rect width="45" height="45" fill="white" transform="translate(32 31)"/>
</clipPath>
</defs>
</svg>
