<svg width="104" height="103" viewBox="0 0 104 103" fill="none" xmlns="http://www.w3.org/2000/svg">
<circle cx="54" cy="53" r="49.5" fill="#F8F7F3" stroke="#45AA49"/>
<g clip-path="url(#clip0)">
<path d="M72.1796 56.945C71.8157 56.0451 70.7911 55.6101 69.8911 55.9742C68.991 56.338 68.5563 57.3626 68.9202 58.2627L70.9905 63.3837L64.8418 60.6732C64.3967 60.4771 63.8902 60.474 63.4429 60.6649C61.3416 61.5615 59.0905 62.016 56.7523 62.016C47.3416 62.016 41.0199 54.6477 41.0199 47.7658C41.0199 39.9082 48.0774 33.5156 56.7523 33.5156C65.4272 33.5156 72.4847 39.9082 72.4847 47.7658C72.4847 48.3789 72.4276 49.1129 72.3281 49.7797C72.1849 50.7399 72.8471 51.6343 73.8073 51.7776C74.7676 51.9212 75.6621 51.2586 75.8053 50.2984C75.931 49.4555 76.0003 48.556 76.0003 47.7658C76.0003 42.9907 73.9783 38.5103 70.3065 35.1498C66.6782 31.8289 61.8645 30 56.7523 30C51.6401 30 46.8265 31.8289 43.1981 35.1497C39.917 38.1527 37.9545 42.0505 37.5739 46.2533C33.4468 48.9864 31.0004 53.3659 31.0004 58.0832C31.0004 61.03 31.9288 63.826 33.696 66.2321L31.1285 72.5833C30.8604 73.2465 31.021 74.0061 31.5347 74.5041C31.8695 74.8288 32.3106 75 32.7586 75C32.9979 74.9999 33.2392 74.9511 33.4672 74.8506L40.8701 71.5872C42.7324 72.2804 44.7008 72.6314 46.7327 72.6314C46.7766 72.6314 46.8198 72.6279 46.8629 72.6248C49.8017 72.6025 52.6588 71.8295 55.1333 70.3829C57.3497 69.0871 59.1729 67.307 60.4511 65.2047C61.699 64.9806 62.9188 64.642 64.1027 64.1895L73.5334 68.3467C73.7615 68.4472 74.0027 68.4961 74.2421 68.4961C74.69 68.496 75.1312 68.3248 75.466 68.0002C75.9797 67.5022 76.1403 66.7427 75.8722 66.0794L72.1796 56.945ZM46.7329 69.1113C46.7089 69.1113 46.6855 69.1139 46.6617 69.1149C44.8668 69.1057 43.1392 68.7529 41.5258 68.0646C41.0785 67.8736 40.572 67.8767 40.1269 68.0729L36.0104 69.8875L37.3383 66.6026C37.5838 65.9954 37.4712 65.3019 37.0464 64.8035C35.391 62.8614 34.516 60.5376 34.516 58.0832C34.516 55.2741 35.6977 52.6125 37.7652 50.5944C38.4089 54.1034 40.2252 57.4601 42.965 60.097C46.3744 63.3782 50.884 65.2791 55.7536 65.508C53.4674 67.7584 50.1958 69.1113 46.7329 69.1113Z" fill="#45AA49"/>
<path d="M56.6641 49.5996C57.6349 49.5996 58.4219 48.8126 58.4219 47.8418C58.4219 46.871 57.6349 46.084 56.6641 46.084C55.6933 46.084 54.9063 46.871 54.9063 47.8418C54.9063 48.8126 55.6933 49.5996 56.6641 49.5996Z" fill="#45AA49"/>
<path d="M63.6953 49.5996C64.6662 49.5996 65.4531 48.8126 65.4531 47.8418C65.4531 46.871 64.6662 46.084 63.6953 46.084C62.7245 46.084 61.9375 46.871 61.9375 47.8418C61.9375 48.8126 62.7245 49.5996 63.6953 49.5996Z" fill="#45AA49"/>
<path d="M49.6329 49.5996C50.6037 49.5996 51.3907 48.8126 51.3907 47.8418C51.3907 46.871 50.6037 46.084 49.6329 46.084C48.6621 46.084 47.8751 46.871 47.8751 47.8418C47.8751 48.8126 48.6621 49.5996 49.6329 49.5996Z" fill="#45AA49"/>
</g>
<circle cx="17" cy="17" r="15.5" fill="#45AA49"/>
<circle cx="17" cy="17" r="15.5" fill="url(#paint0_radial)"/>
<circle cx="17" cy="17" r="15.5" stroke="white" stroke-width="3"/>
<path d="M14.4305 22.196C13.2078 22.196 12.2465 21.734 11.5465 20.81C10.8558 19.8767 10.5105 18.64 10.5105 17.1C10.5105 15.56 10.8558 14.328 11.5465 13.404C12.2465 12.4707 13.2078 12.004 14.4305 12.004C15.6625 12.004 16.6238 12.4707 17.3145 13.404C18.0052 14.328 18.3505 15.56 18.3505 17.1C18.3505 18.64 18.0052 19.8767 17.3145 20.81C16.6238 21.734 15.6625 22.196 14.4305 22.196ZM12.9465 19.494C13.2825 20.0353 13.7772 20.306 14.4305 20.306C15.0838 20.306 15.5785 20.0307 15.9145 19.48C16.2598 18.9293 16.4325 18.136 16.4325 17.1C16.4325 16.0547 16.2598 15.2567 15.9145 14.706C15.5785 14.1553 15.0838 13.88 14.4305 13.88C13.7772 13.88 13.2825 14.1553 12.9465 14.706C12.6105 15.2567 12.4425 16.0547 12.4425 17.1C12.4425 18.1453 12.6105 18.9433 12.9465 19.494ZM21.2954 12.2H22.9754V22H21.0434V14.244L19.1954 14.762L18.7194 13.11L21.2954 12.2Z" fill="white"/>
<defs>
<radialGradient id="paint0_radial" cx="0" cy="0" r="1" gradientUnits="userSpaceOnUse" gradientTransform="translate(17 3) rotate(90) scale(28 17.7758)">
<stop stop-color="#55D35A"/>
<stop offset="1" stop-color="#259529"/>
</radialGradient>
<clipPath id="clip0">
<rect width="45" height="45" fill="white" transform="translate(31 30)"/>
</clipPath>
</defs>
</svg>
