<svg width="104" height="103" viewBox="0 0 104 103" fill="none" xmlns="http://www.w3.org/2000/svg">
<circle cx="54" cy="53" r="49.5" fill="#F8F7F3" stroke="#45AA49"/>
<path d="M77.8396 45.1616C76.2976 43.6194 73.7884 43.6195 72.2458 45.1619C71.7714 45.6368 68.7422 48.6684 68.2795 49.1316V38.6839C68.2795 37.6275 67.8681 36.6343 67.121 35.8873L63.3922 32.1584C62.6453 31.4113 61.652 31 60.5956 31H37.9572C35.7764 31 34.0021 32.7742 34.0021 34.9551V72.0449C34.0021 74.2258 35.7764 76 37.9572 76H64.3244C66.5052 76 68.2795 74.2258 68.2795 72.0449V60.323L77.8395 50.7549C79.3853 49.2093 79.3856 46.7074 77.8396 45.1616ZM60.3694 33.6367C60.6185 33.6367 61.0985 33.5936 61.5278 34.0228L65.2567 37.7518C65.675 38.1702 65.6429 38.6287 65.6429 38.9102H60.3694V33.6367ZM65.6428 72.0449C65.6428 72.7719 65.0514 73.3633 64.3244 73.3633H37.9572C37.2303 73.3633 36.6389 72.7719 36.6389 72.0449V34.9551C36.6389 34.2281 37.2303 33.6367 37.9572 33.6367H57.7326V40.2285C57.7326 40.9566 58.3229 41.5469 59.051 41.5469H65.6428V51.7706C65.6428 51.7706 61.7533 55.6634 61.7531 55.6635L59.8895 57.5271C59.7449 57.6718 59.6357 57.8483 59.571 58.0425L57.7065 63.6358C57.5486 64.1095 57.6719 64.6319 58.025 64.9849C58.3786 65.3385 58.9011 65.4612 59.3741 65.3034L64.9675 63.439C65.1616 63.3743 65.3381 63.2653 65.4828 63.1205L65.6428 62.9605V72.0449ZM62.6861 58.4594L64.5505 60.3238L63.8384 61.036L61.0418 61.9682L61.9739 59.1715L62.6861 58.4594ZM66.4146 58.459L64.5502 56.5945C65.543 55.6009 69.9524 51.1878 70.8875 50.2518L72.752 52.1162L66.4146 58.459ZM75.9747 48.8908L74.6157 50.251L72.7513 48.3866L74.1108 47.026C74.6251 46.5119 75.4613 46.512 75.9753 47.026C76.4892 47.5401 76.4919 48.3736 75.9747 48.8908Z" fill="#45AA49"/>
<path d="M59.0504 44.1836H40.5934C39.8653 44.1836 39.275 44.7739 39.275 45.502C39.275 46.23 39.8653 46.8203 40.5934 46.8203H59.0504C59.7785 46.8203 60.3688 46.23 60.3688 45.502C60.3688 44.7739 59.7785 44.1836 59.0504 44.1836Z" fill="#45AA49"/>
<path d="M53.777 49.457H40.5934C39.8653 49.457 39.275 50.0473 39.275 50.7754C39.275 51.5035 39.8653 52.0938 40.5934 52.0938H53.777C54.5051 52.0938 55.0953 51.5035 55.0953 50.7754C55.0953 50.0473 54.5051 49.457 53.777 49.457Z" fill="#45AA49"/>
<path d="M53.777 54.7305H40.5934C39.8653 54.7305 39.275 55.3207 39.275 56.0488C39.275 56.7769 39.8653 57.3672 40.5934 57.3672H53.777C54.5051 57.3672 55.0953 56.7769 55.0953 56.0488C55.0953 55.3207 54.5051 54.7305 53.777 54.7305Z" fill="#45AA49"/>
<path d="M53.777 60.0039H40.5934C39.8653 60.0039 39.275 60.5942 39.275 61.3223C39.275 62.0504 39.8653 62.6406 40.5934 62.6406H53.777C54.5051 62.6406 55.0953 62.0504 55.0953 61.3223C55.0953 60.5942 54.5051 60.0039 53.777 60.0039Z" fill="#45AA49"/>
<path d="M59.0504 68.0898H51.1402C50.4121 68.0898 49.8218 68.6801 49.8218 69.4082C49.8218 70.1363 50.4121 70.7266 51.1402 70.7266H59.0504C59.7784 70.7266 60.3687 70.1363 60.3687 69.4082C60.3687 68.6801 59.7784 68.0898 59.0504 68.0898Z" fill="#45AA49"/>
<circle cx="17" cy="17" r="15.5" fill="#45AA49"/>
<circle cx="17" cy="17" r="15.5" fill="url(#paint0_radial)"/>
<circle cx="17" cy="17" r="15.5" stroke="white" stroke-width="3"/>
<path d="M13.4403 22.196C12.2176 22.196 11.2563 21.734 10.5563 20.81C9.86561 19.8767 9.52027 18.64 9.52027 17.1C9.52027 15.56 9.86561 14.328 10.5563 13.404C11.2563 12.4707 12.2176 12.004 13.4403 12.004C14.6723 12.004 15.6336 12.4707 16.3243 13.404C17.0149 14.328 17.3603 15.56 17.3603 17.1C17.3603 18.64 17.0149 19.8767 16.3243 20.81C15.6336 21.734 14.6723 22.196 13.4403 22.196ZM11.9563 19.494C12.2923 20.0353 12.7869 20.306 13.4403 20.306C14.0936 20.306 14.5883 20.0307 14.9243 19.48C15.2696 18.9293 15.4423 18.136 15.4423 17.1C15.4423 16.0547 15.2696 15.2567 14.9243 14.706C14.5883 14.1553 14.0936 13.88 13.4403 13.88C12.7869 13.88 12.2923 14.1553 11.9563 14.706C11.6203 15.2567 11.4523 16.0547 11.4523 17.1C11.4523 18.1453 11.6203 18.9433 11.9563 19.494ZM25.7726 18.542V20.334H24.7226V22H22.7766V20.334H18.1426V18.542L21.4046 12.2H23.4766L20.2286 18.542H22.7766V16.218H24.7226V18.542H25.7726Z" fill="white"/>
<defs>
<radialGradient id="paint0_radial" cx="0" cy="0" r="1" gradientUnits="userSpaceOnUse" gradientTransform="translate(17 3) rotate(90) scale(28 17.7758)">
<stop stop-color="#55D35A"/>
<stop offset="1" stop-color="#259529"/>
</radialGradient>
</defs>
</svg>
