<svg width="104" height="103" viewBox="0 0 104 103" fill="none" xmlns="http://www.w3.org/2000/svg">
<circle cx="54" cy="53" r="49.5" fill="#F8F7F3" stroke="#45AA49"/>
<path d="M72.4247 58.6259V42.2351L52.9649 31L33.5052 42.2351V64.7052L52.9649 75.9402L58.1417 72.9514C59.9804 74.8311 62.5431 76 65.3739 76C70.9546 76 75.4948 71.4597 75.4948 65.8791C75.4948 63.0374 74.3171 60.4659 72.4247 58.6259ZM52.9649 34.0486L68.4644 42.9972L62.0348 46.7093L46.5354 37.7607L52.9649 34.0486ZM51.6448 72.1294L36.1455 63.1808V45.2837L51.6448 54.2323V72.1294ZM37.4656 42.9972L43.8951 39.285L59.3946 48.2336L52.9649 51.9457L37.4656 42.9972ZM54.285 72.1294V54.2322L69.7844 45.2836V56.771C68.4506 56.1225 66.954 55.7584 65.3739 55.7584C59.7933 55.7584 55.2531 60.2986 55.2531 65.8792C55.2531 67.674 55.7233 69.3609 56.5461 70.824L54.285 72.1294ZM65.3739 73.3598C61.2491 73.3598 57.8933 70.0039 57.8933 65.8791C57.8933 61.7543 61.2491 58.3985 65.3739 58.3985C69.4987 58.3985 72.8546 61.7543 72.8546 65.8791C72.8546 70.0039 69.4988 73.3598 65.3739 73.3598Z" fill="#45AA49"/>
<path d="M68.4999 62.0439L64.1771 66.3906L62.2408 64.4739L60.3834 66.3501L64.1917 70.12L70.3719 63.9056L68.4999 62.0439Z" fill="#45AA49"/>
<circle cx="17" cy="17" r="15.5" fill="#45AA49"/>
<circle cx="17" cy="17" r="15.5" fill="url(#paint0_radial)"/>
<circle cx="17" cy="17" r="15.5" stroke="white" stroke-width="3"/>
<path d="M13.6317 22.196C12.409 22.196 11.4477 21.734 10.7477 20.81C10.057 19.8767 9.71168 18.64 9.71168 17.1C9.71168 15.56 10.057 14.328 10.7477 13.404C11.4477 12.4707 12.409 12.004 13.6317 12.004C14.8637 12.004 15.825 12.4707 16.5157 13.404C17.2063 14.328 17.5517 15.56 17.5517 17.1C17.5517 18.64 17.2063 19.8767 16.5157 20.81C15.825 21.734 14.8637 22.196 13.6317 22.196ZM12.1477 19.494C12.4837 20.0353 12.9783 20.306 13.6317 20.306C14.285 20.306 14.7797 20.0307 15.1157 19.48C15.461 18.9293 15.6337 18.136 15.6337 17.1C15.6337 16.0547 15.461 15.2567 15.1157 14.706C14.7797 14.1553 14.285 13.88 13.6317 13.88C12.9783 13.88 12.4837 14.1553 12.1477 14.706C11.8117 15.2567 11.6437 16.0547 11.6437 17.1C11.6437 18.1453 11.8117 18.9433 12.1477 19.494ZM22.03 15.378C23.0474 15.406 23.8734 15.7373 24.508 16.372C25.1427 16.9973 25.46 17.8 25.46 18.78C25.46 19.7787 25.1287 20.6 24.466 21.244C23.8034 21.8787 22.9494 22.196 21.904 22.196C20.8587 22.196 20.0047 21.8787 19.342 21.244C18.6887 20.6093 18.362 19.788 18.362 18.78C18.362 18.0333 18.5534 17.3753 18.936 16.806L21.988 12.2H24.2L22.03 15.378ZM20.742 19.942C21.05 20.2313 21.4374 20.376 21.904 20.376C22.3707 20.376 22.758 20.2313 23.066 19.942C23.3834 19.6527 23.542 19.2653 23.542 18.78C23.542 18.304 23.3834 17.9213 23.066 17.632C22.758 17.3427 22.3707 17.198 21.904 17.198C21.4374 17.198 21.05 17.3427 20.742 17.632C20.434 17.912 20.28 18.2947 20.28 18.78C20.28 19.2653 20.434 19.6527 20.742 19.942Z" fill="white"/>
<defs>
<radialGradient id="paint0_radial" cx="0" cy="0" r="1" gradientUnits="userSpaceOnUse" gradientTransform="translate(17 3) rotate(90) scale(28 17.7758)">
<stop stop-color="#55D35A"/>
<stop offset="1" stop-color="#259529"/>
</radialGradient>
</defs>
</svg>
