<svg width="50" height="55" viewBox="0 0 50 55" fill="none" xmlns="http://www.w3.org/2000/svg">
<g filter="url(#filter0_d)">
<path d="M40.344 13.8806L10.5134 1.08814C10.1062 0.913268 9.63293 1.00345 9.31869 1.31569C9.00477 1.62793 8.91299 2.0992 9.08714 2.50583L21.8768 32.3436C22.0477 32.7421 22.4402 33 22.8742 33C22.8778 33 22.8812 33 22.885 33C23.3231 32.9957 23.7157 32.729 23.8799 32.3242L28.6277 20.6235L40.3245 15.8748C40.7294 15.7106 40.9956 15.3199 41 14.8842C41.0042 14.4484 40.7456 14.0527 40.344 13.8806Z" fill="white"/>
<path d="M9.31869 1.31569C9.00477 1.62793 8.91299 2.0992 9.08714 2.50583L10.5134 1.08814C10.1062 0.913268 9.63293 1.00345 9.31869 1.31569ZM9.31869 1.31569L9.31867 1.31568L9.31869 1.31569ZM40.541 13.421L10.7107 0.628707C10.7107 0.628694 10.7105 0.628621 10.7105 0.628608C10.1159 0.373312 9.42523 0.504971 8.96626 0.961009L8.96608 0.961191C8.50717 1.41765 8.37255 2.10734 8.62752 2.70267L8.62758 2.70281L21.4172 32.5406L21.4173 32.5407C21.6673 33.1236 22.241 33.5 22.8742 33.5H22.8743H22.8743H22.8743H22.8744H22.8744H22.8745H22.8745H22.8745H22.8746H22.8746H22.8747H22.8747H22.8748H22.8748H22.8748H22.8749H22.8749H22.875H22.875H22.875H22.8751H22.8751H22.8752H22.8752H22.8753H22.8753H22.8753H22.8754H22.8754H22.8755H22.8755H22.8755H22.8756H22.8756H22.8757H22.8757H22.8758H22.8758H22.8758H22.8759H22.8759H22.876H22.876H22.876H22.8761H22.8761H22.8762H22.8762H22.8763H22.8763H22.8763H22.8764H22.8764H22.8765H22.8765H22.8765H22.8766H22.8766H22.8767H22.8767H22.8767H22.8768H22.8768H22.8769H22.8769H22.877H22.877H22.877H22.8771H22.8771H22.8772H22.8772H22.8772H22.8773H22.8773H22.8774H22.8774H22.8775H22.8775H22.8775H22.8776H22.8776H22.8777H22.8777H22.8777H22.8778H22.8778H22.8779H22.8779H22.878H22.878H22.878H22.8781H22.8781H22.8782H22.8782H22.8782H22.8783H22.8783H22.8784H22.8784H22.8785H22.8785H22.8785H22.8786H22.8786H22.8787H22.8787H22.8787H22.8788H22.8788H22.8789H22.8789H22.879H22.879H22.879H22.8791H22.8791H22.8792H22.8792H22.8792H22.8793H22.8793H22.8794H22.8794H22.8795H22.8795H22.8795H22.8796H22.8796H22.8797H22.8797H22.8797H22.8798H22.8798H22.8799H22.8799H22.88H22.88H22.88H22.8801H22.8801H22.8802H22.8802H22.8802H22.8803H22.8803H22.8804H22.8804H22.8805H22.8805H22.8805H22.8806H22.8806H22.8807H22.8807H22.8808H22.8808H22.8808H22.8809H22.8809H22.881H22.881H22.881H22.8811H22.8811H22.8812H22.8812H22.8813H22.8813H22.8813H22.8814H22.8814H22.8815H22.8815H22.8816H22.8816H22.8816H22.8817H22.8817H22.8818H22.8818H22.8819H22.8819H22.8819H22.882H22.882H22.8821H22.8821H22.8822H22.8822H22.8822H22.8823H22.8823H22.8824H22.8824H22.8825H22.8825H22.8825H22.8826H22.8826H22.8827H22.8827H22.8828H22.8828H22.8828H22.8829H22.8829H22.883H22.883H22.8831H22.8831H22.8831H22.8832H22.8832H22.8833H22.8833H22.8834H22.8834H22.8834H22.8835H22.8835H22.8836H22.8836H22.8837H22.8837H22.8837H22.8838H22.8838H22.8839H22.8839H22.884H22.884H22.8841H22.8841H22.8841H22.8842H22.8842H22.8843H22.8843H22.8844H22.8844H22.8844H22.8845H22.8845H22.8846H22.8846H22.8847H22.8847H22.8848H22.8848H22.8848H22.8849H22.8849H22.885L22.885 33.5L22.8899 33.5C23.5291 33.4937 24.1028 33.1047 24.3432 32.5122C24.3432 32.5122 24.3432 32.5122 24.3432 32.5122L29.0115 21.0073L40.5125 16.3381C40.5125 16.3381 40.5126 16.3381 40.5126 16.3381C41.1039 16.0982 41.4936 15.5271 41.4999 14.8891V14.889C41.5061 14.2508 41.1274 13.6724 40.5411 13.421C40.5411 13.421 40.541 13.421 40.541 13.421Z" stroke="#919191"/>
</g>
<defs>
<filter id="filter0_d" x="-4.57764e-05" y="0" width="50" height="55.0001" filterUnits="userSpaceOnUse" color-interpolation-filters="sRGB">
<feFlood flood-opacity="0" result="BackgroundImageFix"/>
<feColorMatrix in="SourceAlpha" type="matrix" values="0 0 0 0 0 0 0 0 0 0 0 0 0 0 0 0 0 0 127 0"/>
<feOffset dy="13"/>
<feGaussianBlur stdDeviation="4"/>
<feColorMatrix type="matrix" values="0 0 0 0 0 0 0 0 0 0 0 0 0 0 0 0 0 0 0.13 0"/>
<feBlend mode="normal" in2="BackgroundImageFix" result="effect1_dropShadow"/>
<feBlend mode="normal" in="SourceGraphic" in2="effect1_dropShadow" result="shape"/>
</filter>
</defs>
</svg>
