<svg width="177" height="58" viewBox="0 0 177 58" fill="none" xmlns="http://www.w3.org/2000/svg">
<path d="M0.683594 26V23.8638L2.57568 23.4976V10.7412L0.683594 10.375V8.22656H2.57568H8.58154C10.673 8.22656 12.3047 8.63346 13.4766 9.44727C14.6484 10.2611 15.2344 11.4777 15.2344 13.0972C15.2344 13.9191 15.0146 14.6556 14.5752 15.3066C14.1439 15.9495 13.5132 16.4338 12.6831 16.7593C13.3911 16.9139 13.9811 17.1865 14.4531 17.5771C14.9333 17.9678 15.2913 18.4438 15.5273 19.0054C15.7633 19.5588 15.8813 20.165 15.8813 20.8242C15.8813 22.5251 15.3198 23.8149 14.1968 24.6938C13.0737 25.5646 11.4827 26 9.42383 26H0.683594ZM6.14014 23.2656H9.42383C10.3678 23.2656 11.0881 23.0622 11.5845 22.6553C12.0809 22.2402 12.3291 21.6299 12.3291 20.8242C12.3291 20.2383 12.2355 19.7459 12.0483 19.3472C11.8612 18.9484 11.5723 18.6473 11.1816 18.4438C10.7992 18.2404 10.3027 18.1387 9.69238 18.1387H6.14014V23.2656ZM6.14014 15.6729H8.70361C9.65576 15.6729 10.3882 15.4775 10.9009 15.0869C11.4136 14.6963 11.6699 14.1266 11.6699 13.3779C11.6699 12.556 11.4095 11.9497 10.8887 11.5591C10.376 11.1685 9.60693 10.9731 8.58154 10.9731H6.14014V15.6729ZM17.4438 26V23.8638L19.1528 23.4976V15.3066L17.2607 14.9404V12.792H22.4731L22.6074 14.4277L22.6318 14.7207C22.9574 14.0046 23.3602 13.4634 23.8403 13.0972C24.3205 12.731 24.8942 12.5479 25.5615 12.5479C25.7731 12.5479 26.005 12.5682 26.2573 12.6089C26.5096 12.6414 26.7334 12.6862 26.9287 12.7432L26.5503 16.0269L24.7803 15.9292C24.2757 15.9048 23.8647 15.9902 23.5474 16.1855C23.2381 16.3809 22.9614 16.6616 22.7173 17.0278V23.4976L24.4263 23.8638V26H17.4438ZM34.0454 26.2563C32.7433 26.2563 31.6243 25.9715 30.6885 25.4019C29.7526 24.8322 29.0365 24.0428 28.54 23.0337C28.0436 22.0164 27.7954 20.8486 27.7954 19.5303V19.2739C27.7954 17.9637 28.0436 16.804 28.54 15.7949C29.0365 14.7777 29.7485 13.9842 30.6763 13.4146C31.6121 12.8368 32.7271 12.5479 34.021 12.5479C35.3312 12.5479 36.4502 12.8368 37.3779 13.4146C38.3057 13.9842 39.0177 14.7736 39.5142 15.7827C40.0106 16.7918 40.2588 17.9556 40.2588 19.2739V19.5303C40.2588 20.8486 40.0106 22.0164 39.5142 23.0337C39.0177 24.0428 38.3057 24.8322 37.3779 25.4019C36.4502 25.9715 35.3394 26.2563 34.0454 26.2563ZM34.0454 23.522C34.6639 23.522 35.1685 23.3551 35.5591 23.0215C35.9497 22.6878 36.2386 22.224 36.4258 21.6299C36.613 21.0277 36.7065 20.3278 36.7065 19.5303V19.2739C36.7065 18.4927 36.613 17.805 36.4258 17.2109C36.2386 16.6087 35.9456 16.1408 35.5469 15.8071C35.1562 15.4653 34.6476 15.2944 34.021 15.2944C33.4106 15.2944 32.9061 15.4653 32.5073 15.8071C32.1086 16.1408 31.8156 16.6087 31.6284 17.2109C31.4494 17.805 31.3599 18.4927 31.3599 19.2739V19.5303C31.3599 20.3278 31.4494 21.0277 31.6284 21.6299C31.8156 22.2321 32.1086 22.7 32.5073 23.0337C32.9061 23.3592 33.4188 23.522 34.0454 23.522ZM45.1294 31.3345C44.8201 31.3345 44.4906 31.306 44.1406 31.249C43.7988 31.2002 43.4733 31.131 43.1641 31.0415L43.5669 28.4292C43.7215 28.4618 43.8924 28.4862 44.0796 28.5024C44.2668 28.5187 44.4295 28.5269 44.5679 28.5269C45.0806 28.5269 45.5241 28.3926 45.8984 28.124C46.2728 27.8555 46.5454 27.4689 46.7163 26.9644L47.0093 26.1465L42.5903 15.1724L40.9668 14.9404V12.792H47.9736V14.9404L46.3623 15.1846L48.4375 21.0073L48.6938 21.7275H48.7671L51.2207 15.1602L49.646 14.9404V12.792H56.1768V14.9404L54.6875 15.1479L49.646 27.9653C49.4019 28.5757 49.0885 29.1331 48.7061 29.6377C48.3317 30.1504 47.8516 30.5614 47.2656 30.8706C46.6878 31.1799 45.9757 31.3345 45.1294 31.3345ZM56.9702 26V23.8638L58.6914 23.4976V9.47168L56.7871 9.10547V6.95703H62.2559V23.4976L63.9771 23.8638V26H56.9702ZM71.228 26.2563C69.9666 26.2563 68.8639 25.9797 67.9199 25.4263C66.9759 24.8647 66.2435 24.0957 65.7227 23.1191C65.21 22.1426 64.9536 21.0277 64.9536 19.7744V19.2861C64.9536 17.9759 65.1978 16.8162 65.686 15.8071C66.1743 14.7899 66.862 13.9924 67.749 13.4146C68.6442 12.8286 69.6981 12.5397 70.9106 12.5479C72.1069 12.5479 73.112 12.7839 73.9258 13.2559C74.7396 13.7279 75.3581 14.4074 75.7812 15.2944C76.2044 16.1815 76.416 17.2557 76.416 18.5171V20.458H68.6523L68.6279 20.5312C68.6768 21.109 68.8192 21.6258 69.0552 22.0815C69.2993 22.5291 69.6411 22.8831 70.0806 23.1436C70.52 23.3958 71.0531 23.522 71.6797 23.522C72.3307 23.522 72.937 23.4406 73.4985 23.2778C74.0682 23.1069 74.6216 22.8587 75.1587 22.5332L76.123 24.7305C75.5778 25.1699 74.8901 25.5361 74.0601 25.8291C73.2381 26.1139 72.2941 26.2563 71.228 26.2563ZM68.6768 18.1021H73.0835V17.7847C73.0835 17.2476 73.0103 16.7878 72.8638 16.4053C72.7254 16.0146 72.4976 15.7135 72.1802 15.502C71.8709 15.2904 71.4681 15.1846 70.9717 15.1846C70.4997 15.1846 70.1009 15.3107 69.7754 15.563C69.4499 15.8071 69.1935 16.1449 69.0063 16.5762C68.8273 17.0075 68.7052 17.4958 68.6401 18.041L68.6768 18.1021ZM78.3325 26V23.8638L80.0415 23.4976V15.3066L78.1494 14.9404V12.792H83.3618L83.4961 14.4277L83.5205 14.7207C83.846 14.0046 84.2489 13.4634 84.729 13.0972C85.2091 12.731 85.7829 12.5479 86.4502 12.5479C86.6618 12.5479 86.8937 12.5682 87.146 12.6089C87.3983 12.6414 87.6221 12.6862 87.8174 12.7432L87.439 16.0269L85.6689 15.9292C85.1644 15.9048 84.7534 15.9902 84.436 16.1855C84.1268 16.3809 83.8501 16.6616 83.606 17.0278V23.4976L85.3149 23.8638V26H78.3325Z" fill="black"/>
<path d="M94.9219 26V23.8638L96.814 23.4976V10.7412L94.9219 10.375V8.22656H109.07V13.0972H106.335L106.177 10.9731H100.378V15.8682H106.604V18.6147H100.378V23.4976L102.283 23.8638V26H94.9219ZM114.465 26.2563C113.155 26.2563 112.113 25.9064 111.34 25.2065C110.567 24.4985 110.181 23.5382 110.181 22.3257C110.181 21.4956 110.404 20.7673 110.852 20.1406C111.308 19.514 111.975 19.0216 112.854 18.6636C113.741 18.3055 114.832 18.1265 116.125 18.1265H117.871V17.1499C117.871 16.5151 117.684 16.0024 117.31 15.6118C116.943 15.2131 116.39 15.0137 115.649 15.0137C115.267 15.0137 114.921 15.0625 114.612 15.1602C114.311 15.2497 114.038 15.3799 113.794 15.5508L113.513 17.2964H110.95L110.901 13.8662C111.593 13.4756 112.341 13.1582 113.147 12.9141C113.953 12.6699 114.852 12.5479 115.845 12.5479C117.57 12.5479 118.933 12.9507 119.934 13.7563C120.935 14.5539 121.436 15.6973 121.436 17.1865V22.6309C121.436 22.8099 121.436 22.9889 121.436 23.168C121.444 23.3389 121.46 23.5057 121.484 23.6685L122.864 23.8638V26H118.445C118.355 25.7721 118.266 25.528 118.176 25.2676C118.087 25.0072 118.022 24.7467 117.981 24.4863C117.558 25.0234 117.057 25.4548 116.479 25.7803C115.91 26.0977 115.238 26.2563 114.465 26.2563ZM115.417 23.6196C115.914 23.6196 116.386 23.5098 116.833 23.29C117.281 23.0622 117.627 22.7651 117.871 22.3989V20.3115H116.113C115.332 20.3115 114.738 20.4906 114.331 20.8486C113.932 21.2067 113.733 21.638 113.733 22.1426C113.733 22.6146 113.879 22.9808 114.172 23.2412C114.473 23.4935 114.889 23.6196 115.417 23.6196ZM124.402 26V23.8638L126.111 23.4976V15.3066L124.219 14.9404V12.792H129.431L129.565 14.4277L129.59 14.7207C129.915 14.0046 130.318 13.4634 130.798 13.0972C131.278 12.731 131.852 12.5479 132.52 12.5479C132.731 12.5479 132.963 12.5682 133.215 12.6089C133.468 12.6414 133.691 12.6862 133.887 12.7432L133.508 16.0269L131.738 15.9292C131.234 15.9048 130.823 15.9902 130.505 16.1855C130.196 16.3809 129.919 16.6616 129.675 17.0278V23.4976L131.384 23.8638V26H124.402ZM134.912 26V23.8638L136.633 23.4976V15.3066L134.729 14.9404V12.792H139.941L140.088 14.5376C140.511 13.9028 141.04 13.4146 141.675 13.0728C142.318 12.7228 143.058 12.5479 143.896 12.5479C144.743 12.5479 145.467 12.735 146.069 13.1094C146.68 13.4837 147.135 14.0493 147.437 14.8062C147.843 14.0981 148.372 13.5448 149.023 13.146C149.674 12.7472 150.439 12.5479 151.318 12.5479C152.62 12.5479 153.646 12.9914 154.395 13.8784C155.151 14.7655 155.53 16.1164 155.53 17.9312V23.4976L157.251 23.8638V26H150.427V23.8638L151.965 23.4976V17.9189C151.965 16.9424 151.803 16.2669 151.477 15.8926C151.16 15.5101 150.696 15.3188 150.085 15.3188C149.532 15.3188 149.064 15.4775 148.682 15.7949C148.299 16.1042 148.022 16.5151 147.852 17.0278V23.4976L149.292 23.8638V26H142.859V23.8638L144.299 23.4976V17.9189C144.299 16.9668 144.137 16.2954 143.811 15.9048C143.494 15.5142 143.022 15.3188 142.395 15.3188C141.89 15.3188 141.455 15.4206 141.089 15.624C140.723 15.8275 140.422 16.1204 140.186 16.5029V23.4976L141.724 23.8638V26H134.912Z" fill="#45AA49"/>
<path d="M7.592 45H6.11L2.184 40.632V45H0.975V35.9H2.184V40.008L5.98 35.9H7.462L3.445 40.32L7.592 45ZM13.4534 44.181C12.786 44.8397 11.9757 45.169 11.0224 45.169C10.069 45.169 9.25871 44.8397 8.59138 44.181C7.93271 43.5223 7.60338 42.712 7.60338 41.75C7.60338 40.788 7.93271 39.9777 8.59138 39.319C9.25871 38.6603 10.069 38.331 11.0224 38.331C11.9757 38.331 12.786 38.6603 13.4534 39.319C14.1207 39.9777 14.4544 40.788 14.4544 41.75C14.4544 42.712 14.1207 43.5223 13.4534 44.181ZM11.0224 44.064C11.6724 44.064 12.2184 43.843 12.6604 43.401C13.1024 42.959 13.3234 42.4087 13.3234 41.75C13.3234 41.0913 13.1024 40.541 12.6604 40.099C12.2184 39.657 11.6724 39.436 11.0224 39.436C10.381 39.436 9.83938 39.657 9.39738 40.099C8.95538 40.541 8.73438 41.0913 8.73438 41.75C8.73438 42.4087 8.95538 42.959 9.39738 43.401C9.83938 43.843 10.381 44.064 11.0224 44.064ZM22.2877 38.5V45H21.1827V40.281L19.1157 43.609H18.9727L16.9057 40.281V45H15.7877V38.5H16.9967L19.0377 41.789L21.0787 38.5H22.2877ZM26.9653 45.169C26.0033 45.169 25.2103 44.8527 24.5863 44.22C23.9623 43.5873 23.6503 42.7727 23.6503 41.776C23.6503 40.6667 23.8106 39.813 24.1313 39.215C24.4606 38.617 25.1279 38.0753 26.1333 37.59C26.3153 37.5033 26.5623 37.3907 26.8743 37.252C27.1949 37.1133 27.4289 37.0093 27.5763 36.94C27.7236 36.862 27.8883 36.7623 28.0703 36.641C28.2523 36.511 28.3866 36.3723 28.4733 36.225C28.5686 36.069 28.6379 35.8913 28.6813 35.692L29.5913 36.212C29.5653 36.3507 29.5306 36.4807 29.4873 36.602C29.4439 36.7147 29.3789 36.8273 29.2923 36.94C29.2143 37.044 29.1449 37.135 29.0843 37.213C29.0236 37.291 28.9196 37.3777 28.7723 37.473C28.6336 37.5597 28.5296 37.6247 28.4603 37.668C28.3996 37.7113 28.2739 37.7763 28.0833 37.863C27.9013 37.9497 27.7756 38.0103 27.7063 38.045C27.6456 38.071 27.5026 38.1317 27.2773 38.227C27.0519 38.3137 26.9133 38.37 26.8613 38.396C26.2719 38.6473 25.8386 38.903 25.5613 39.163C25.2926 39.423 25.0976 39.7523 24.9763 40.151C25.2536 39.8043 25.6003 39.5487 26.0163 39.384C26.4323 39.2193 26.8483 39.137 27.2643 39.137C28.0789 39.137 28.7679 39.4143 29.3313 39.969C29.9033 40.5237 30.1893 41.2387 30.1893 42.114C30.1893 42.998 29.8859 43.7303 29.2793 44.311C28.6726 44.883 27.9013 45.169 26.9653 45.169ZM25.4443 43.505C25.8516 43.8863 26.3586 44.077 26.9653 44.077C27.5719 44.077 28.0703 43.8907 28.4603 43.518C28.8589 43.1453 29.0583 42.6773 29.0583 42.114C29.0583 41.5333 28.8676 41.061 28.4863 40.697C28.1136 40.3243 27.6196 40.138 27.0043 40.138C26.4496 40.138 25.9469 40.3157 25.4963 40.671C25.0543 41.0177 24.8333 41.477 24.8333 42.049C24.8333 42.6383 25.0369 43.1237 25.4443 43.505ZM36.1092 38.5H37.0192V45H35.9012V40.437L32.3002 45H31.3902V38.5H32.5082V43.063L36.1092 38.5ZM44.2398 45H42.8358L39.8718 41.919V45H38.7408V38.5H39.8718V41.373L42.6798 38.5H44.1358L41.0288 41.646L44.2398 45ZM50.1809 44.181C49.5136 44.8397 48.7032 45.169 47.7499 45.169C46.7966 45.169 45.9862 44.8397 45.3189 44.181C44.6602 43.5223 44.3309 42.712 44.3309 41.75C44.3309 40.788 44.6602 39.9777 45.3189 39.319C45.9862 38.6603 46.7966 38.331 47.7499 38.331C48.7032 38.331 49.5136 38.6603 50.1809 39.319C50.8482 39.9777 51.1819 40.788 51.1819 41.75C51.1819 42.712 50.8482 43.5223 50.1809 44.181ZM47.7499 44.064C48.3999 44.064 48.9459 43.843 49.3879 43.401C49.8299 42.959 50.0509 42.4087 50.0509 41.75C50.0509 41.0913 49.8299 40.541 49.3879 40.099C48.9459 39.657 48.3999 39.436 47.7499 39.436C47.1086 39.436 46.5669 39.657 46.1249 40.099C45.6829 40.541 45.4619 41.0913 45.4619 41.75C45.4619 42.4087 45.6829 42.959 46.1249 43.401C46.5669 43.843 47.1086 44.064 47.7499 44.064ZM56.1032 38.331C57.0132 38.331 57.7889 38.6647 58.4302 39.332C59.0716 39.9907 59.3922 40.7967 59.3922 41.75C59.3922 42.7033 59.0716 43.5137 58.4302 44.181C57.7889 44.8397 57.0132 45.169 56.1032 45.169C55.0286 45.169 54.2096 44.74 53.6462 43.882V47.6H52.5152V38.5H53.6462V39.618C54.2096 38.76 55.0286 38.331 56.1032 38.331ZM55.9602 44.077C56.6102 44.077 57.1562 43.856 57.5982 43.414C58.0402 42.9633 58.2612 42.4087 58.2612 41.75C58.2612 41.0913 58.0402 40.541 57.5982 40.099C57.1562 39.6483 56.6102 39.423 55.9602 39.423C55.3016 39.423 54.7512 39.6483 54.3092 40.099C53.8672 40.541 53.6462 41.0913 53.6462 41.75C53.6462 42.4087 53.8672 42.9633 54.3092 43.414C54.7512 43.856 55.3016 44.077 55.9602 44.077ZM67.2418 38.5V45H66.1368V40.281L64.0698 43.609H63.9268L61.8598 40.281V45H60.7418V38.5H61.9508L63.9918 41.789L66.0328 38.5H67.2418ZM77.8084 43.921H78.7054V46.742H77.5874V45H72.7124V46.742H71.5944V43.921H72.3874C72.8034 43.349 73.0114 42.5473 73.0114 41.516V38.5H77.8084V43.921ZM73.6744 43.921H76.6904V39.553H74.1294V41.516C74.1294 42.4867 73.9777 43.2883 73.6744 43.921ZM85.3454 38.5V45H84.2144V39.592H81.6534V42.244C81.6534 43.31 81.4367 44.0553 81.0034 44.48C80.5787 44.896 79.9764 45.0693 79.1964 45V43.934C79.6384 43.9947 79.9677 43.8993 80.1844 43.648C80.4097 43.388 80.5224 42.9113 80.5224 42.218V38.5H85.3454ZM91.9212 38.5V45H90.8032V42.66H89.8542L88.0342 45H86.6562L88.5542 42.595C88.0688 42.4737 87.6745 42.231 87.3712 41.867C87.0678 41.503 86.9162 41.0783 86.9162 40.593C86.9162 39.995 87.1285 39.4967 87.5532 39.098C87.9778 38.6993 88.5108 38.5 89.1522 38.5H91.9212ZM89.1912 41.646H90.8032V39.553H89.1912C88.8705 39.553 88.5975 39.6483 88.3722 39.839C88.1468 40.0297 88.0342 40.2853 88.0342 40.606C88.0342 40.918 88.1468 41.1693 88.3722 41.36C88.5975 41.5507 88.8705 41.646 89.1912 41.646ZM99.8363 45.169C98.8743 45.169 98.0813 44.8527 97.4573 44.22C96.8333 43.5873 96.5213 42.7727 96.5213 41.776C96.5213 40.6667 96.6817 39.813 97.0023 39.215C97.3317 38.617 97.999 38.0753 99.0043 37.59C99.1863 37.5033 99.4333 37.3907 99.7453 37.252C100.066 37.1133 100.3 37.0093 100.447 36.94C100.595 36.862 100.759 36.7623 100.941 36.641C101.123 36.511 101.258 36.3723 101.344 36.225C101.44 36.069 101.509 35.8913 101.552 35.692L102.462 36.212C102.436 36.3507 102.402 36.4807 102.358 36.602C102.315 36.7147 102.25 36.8273 102.163 36.94C102.085 37.044 102.016 37.135 101.955 37.213C101.895 37.291 101.791 37.3777 101.643 37.473C101.505 37.5597 101.401 37.6247 101.331 37.668C101.271 37.7113 101.145 37.7763 100.954 37.863C100.772 37.9497 100.647 38.0103 100.577 38.045C100.517 38.071 100.374 38.1317 100.148 38.227C99.923 38.3137 99.7843 38.37 99.7323 38.396C99.143 38.6473 98.7097 38.903 98.4323 39.163C98.1637 39.423 97.9687 39.7523 97.8473 40.151C98.1247 39.8043 98.4713 39.5487 98.8873 39.384C99.3033 39.2193 99.7193 39.137 100.135 39.137C100.95 39.137 101.639 39.4143 102.202 39.969C102.774 40.5237 103.06 41.2387 103.06 42.114C103.06 42.998 102.757 43.7303 102.15 44.311C101.544 44.883 100.772 45.169 99.8363 45.169ZM98.3153 43.505C98.7227 43.8863 99.2297 44.077 99.8363 44.077C100.443 44.077 100.941 43.8907 101.331 43.518C101.73 43.1453 101.929 42.6773 101.929 42.114C101.929 41.5333 101.739 41.061 101.357 40.697C100.985 40.3243 100.491 40.138 99.8753 40.138C99.3207 40.138 98.818 40.3157 98.3673 40.671C97.9253 41.0177 97.7043 41.477 97.7043 42.049C97.7043 42.6383 97.908 43.1237 98.3153 43.505ZM107.849 38.331C108.759 38.331 109.535 38.6647 110.176 39.332C110.818 39.9907 111.138 40.7967 111.138 41.75C111.138 42.7033 110.818 43.5137 110.176 44.181C109.535 44.8397 108.759 45.169 107.849 45.169C106.775 45.169 105.956 44.74 105.392 43.882V47.6H104.261V38.5H105.392V39.618C105.956 38.76 106.775 38.331 107.849 38.331ZM107.706 44.077C108.356 44.077 108.902 43.856 109.344 43.414C109.786 42.9633 110.007 42.4087 110.007 41.75C110.007 41.0913 109.786 40.541 109.344 40.099C108.902 39.6483 108.356 39.423 107.706 39.423C107.048 39.423 106.497 39.6483 106.055 40.099C105.613 40.541 105.392 41.0913 105.392 41.75C105.392 42.4087 105.613 42.9633 106.055 43.414C106.497 43.856 107.048 44.077 107.706 44.077ZM117.974 44.181C117.307 44.8397 116.496 45.169 115.543 45.169C114.59 45.169 113.779 44.8397 113.112 44.181C112.453 43.5223 112.124 42.712 112.124 41.75C112.124 40.788 112.453 39.9777 113.112 39.319C113.779 38.6603 114.59 38.331 115.543 38.331C116.496 38.331 117.307 38.6603 117.974 39.319C118.641 39.9777 118.975 40.788 118.975 41.75C118.975 42.712 118.641 43.5223 117.974 44.181ZM115.543 44.064C116.193 44.064 116.739 43.843 117.181 43.401C117.623 42.959 117.844 42.4087 117.844 41.75C117.844 41.0913 117.623 40.541 117.181 40.099C116.739 39.657 116.193 39.436 115.543 39.436C114.902 39.436 114.36 39.657 113.918 40.099C113.476 40.541 113.255 41.0913 113.255 41.75C113.255 42.4087 113.476 42.959 113.918 43.401C114.36 43.843 114.902 44.064 115.543 44.064ZM121.374 37.525V36.537H124.884V37.525H121.374ZM125.027 38.5H125.937V45H124.819V40.437L121.218 45H120.308V38.5H121.426V43.063L125.027 38.5ZM133.08 38.5V45H131.949V39.592H129.388V42.244C129.388 43.31 129.171 44.0553 128.738 44.48C128.313 44.896 127.711 45.0693 126.931 45V43.934C127.373 43.9947 127.702 43.8993 127.919 43.648C128.144 43.388 128.257 42.9113 128.257 42.218V38.5H133.08ZM135.587 42.27C135.699 42.8507 135.964 43.3013 136.38 43.622C136.804 43.9427 137.324 44.103 137.94 44.103C138.798 44.103 139.422 43.7867 139.812 43.154L140.774 43.7C140.141 44.6793 139.188 45.169 137.914 45.169C136.882 45.169 136.042 44.8483 135.392 44.207C134.75 43.557 134.43 42.738 134.43 41.75C134.43 40.7707 134.746 39.956 135.379 39.306C136.011 38.656 136.83 38.331 137.836 38.331C138.789 38.331 139.565 38.669 140.163 39.345C140.769 40.0123 141.073 40.8183 141.073 41.763C141.073 41.9277 141.06 42.0967 141.034 42.27H135.587ZM137.836 39.397C137.229 39.397 136.726 39.5703 136.328 39.917C135.929 40.255 135.682 40.71 135.587 41.282H139.929C139.833 40.6667 139.591 40.1987 139.201 39.878C138.811 39.5573 138.356 39.397 137.836 39.397ZM145.961 38.331C146.871 38.331 147.646 38.6647 148.288 39.332C148.929 39.9907 149.25 40.7967 149.25 41.75C149.25 42.7033 148.929 43.5137 148.288 44.181C147.646 44.8397 146.871 45.169 145.961 45.169C144.886 45.169 144.067 44.74 143.504 43.882V47.6H142.373V38.5H143.504V39.618C144.067 38.76 144.886 38.331 145.961 38.331ZM145.818 44.077C146.468 44.077 147.014 43.856 147.456 43.414C147.898 42.9633 148.119 42.4087 148.119 41.75C148.119 41.0913 147.898 40.541 147.456 40.099C147.014 39.6483 146.468 39.423 145.818 39.423C145.159 39.423 144.609 39.6483 144.167 40.099C143.725 40.541 143.504 41.0913 143.504 41.75C143.504 42.4087 143.725 42.9633 144.167 43.414C144.609 43.856 145.159 44.077 145.818 44.077ZM156.085 44.181C155.418 44.8397 154.608 45.169 153.654 45.169C152.701 45.169 151.891 44.8397 151.223 44.181C150.565 43.5223 150.235 42.712 150.235 41.75C150.235 40.788 150.565 39.9777 151.223 39.319C151.891 38.6603 152.701 38.331 153.654 38.331C154.608 38.331 155.418 38.6603 156.085 39.319C156.753 39.9777 157.086 40.788 157.086 41.75C157.086 42.712 156.753 43.5223 156.085 44.181ZM153.654 44.064C154.304 44.064 154.85 43.843 155.292 43.401C155.734 42.959 155.955 42.4087 155.955 41.75C155.955 41.0913 155.734 40.541 155.292 40.099C154.85 39.657 154.304 39.436 153.654 39.436C153.013 39.436 152.471 39.657 152.029 40.099C151.587 40.541 151.366 41.0913 151.366 41.75C151.366 42.4087 151.587 42.959 152.029 43.401C152.471 43.843 153.013 44.064 153.654 44.064ZM162.749 41.659C163.416 41.9363 163.75 42.439 163.75 43.167C163.75 43.7043 163.568 44.1463 163.204 44.493C162.848 44.831 162.337 45 161.67 45H158.42V38.5H161.41C162.06 38.5 162.562 38.6647 162.918 38.994C163.273 39.3147 163.451 39.7393 163.451 40.268C163.451 40.892 163.217 41.3557 162.749 41.659ZM161.358 39.514H159.525V41.217H161.358C162.016 41.217 162.346 40.9267 162.346 40.346C162.346 39.7913 162.016 39.514 161.358 39.514ZM161.605 43.973C161.934 43.973 162.185 43.895 162.359 43.739C162.541 43.583 162.632 43.362 162.632 43.076C162.632 42.8073 162.541 42.5993 162.359 42.452C162.185 42.296 161.934 42.218 161.605 42.218H159.525V43.973H161.605Z" fill="#373737"/>
<path d="M0 55L177 58H0V55Z" fill="#45AA49"/>
</svg>
